<?xml version="1.0" standalone="no"?>
<!DOCTYPE svg PUBLIC "-//W3C//DTD SVG 20010904//EN"
 "http://www.w3.org/TR/2001/REC-SVG-20010904/DTD/svg10.dtd">
<svg version="1.0" xmlns="http://www.w3.org/2000/svg"
 width="720.000000pt" height="720.000000pt" viewBox="0 0 720.000000 720.000000"
 preserveAspectRatio="xMidYMid meet">
<metadata>
Created by potrace 1.14, written by Peter Selinger 2001-2017
</metadata>
<g transform="translate(0.000000,720.000000) scale(0.100000,-0.100000)"
fill="#000000" stroke="none">
<path d="M2690 5882 c-41 -21 -194 -93 -340 -161 -146 -69 -332 -156 -415
-195 -82 -39 -189 -89 -237 -111 l-87 -40 -1 -1101 0 -1101 293 -138 c277
-131 580 -274 785 -371 l93 -44 69 35 c38 19 131 64 207 99 76 35 192 90 258
121 111 53 342 162 544 257 46 21 82 41 80 43 -2 2 -263 125 -579 274 l-575
271 -3 553 -2 554 82 38 c46 21 161 76 257 122 95 46 175 83 176 83 2 0 82 38
180 85 97 47 178 85 180 85 8 0 275 131 275 136 0 3 -28 18 -62 33 -35 16
-108 50 -163 76 -162 77 -276 131 -520 245 -126 59 -269 126 -317 149 -48 23
-91 41 -95 40 -5 0 -42 -17 -83 -37z"/>
<path d="M4270 4700 c-140 -67 -400 -189 -578 -272 -177 -83 -319 -154 -315
-158 4 -3 58 -29 118 -57 130 -61 216 -102 630 -298 171 -80 331 -156 358
-167 l47 -20 0 -553 0 -552 -262 -123 c-145 -68 -321 -151 -393 -185 -71 -34
-214 -101 -317 -150 -103 -48 -185 -91 -183 -95 2 -4 89 -47 192 -95 103 -49
253 -120 333 -158 80 -38 163 -77 185 -87 22 -10 131 -61 241 -113 l202 -96
218 104 c121 57 381 180 579 273 l360 171 3 1103 2 1103 -192 90 c-106 49
-263 123 -348 163 -85 41 -216 103 -290 137 -74 35 -179 84 -233 109 -53 25
-98 46 -100 46 -1 0 -117 -54 -257 -120z"/>
</g>
</svg>
